<svg xmlns="http://www.w3.org/2000/svg" version="1.1" xmlns:xlink="http://www.w3.org/1999/xlink" xmlns:svgjs="http://svgjs.dev/svgjs" width="100%" height="100%" viewBox="0 0 1000 600"><rect width="1000" height="600" x="0" y="0" fill="white"/><g><circle r="166.66666666666666" cx="414.3792521158854" cy="436.6014838855068" fill="#3d155f" transform="matrix(0.5046171151933118,0,0,0.5046171151933118,0,79.68343778606271)"/><path d="M473.2630399324546 361.6014586462689L473.2630399324546 511.6014636556208L453.7146906922784 511.6014636556208L375.0736216115696 392.34161088654594L375.0736216115696 511.6014636556208L355.49542756339315 511.6014636556208L355.49542756339315 361.6014586462689L375.0736216115696 361.6014586462689L453.7146906922784 480.65239775934185L453.7146906922784 361.6014586462689L473.2630399324546 361.6014586462689Z " fill="#df678c" transform="matrix(0.5046171151933118,0,0,0.5046171151933118,0,79.68343778606271)"/><path d="M774.1326075088654 370.001252366821L774.1326075088654 509.79356506983265L755.9145484518672 509.79356506983265L682.6251047645542 398.64949790683335L682.6251047645542 509.79356506983265L664.3792318769347 509.79356506983265L664.3792318769347 370.001252366821L682.6251047645542 370.001252366821L755.9145484518672 480.95062271547073L755.9145484518672 370.001252366821L774.1326075088654 370.001252366821ZM853.0404449816955 511.6014640602218Q837.6037689868344 511.6014640602218 825.0875452072174 504.59237874363623Q812.5713214276003 497.58329342705065 805.4787946191508 484.64986218811305Q798.3584539800796 471.7442447797969 798.3584539800796 454.7221804395177L798.3584539800796 454.7221804395177Q798.3584539800796 437.8948129135881 805.6734914335003 424.9891955052719Q812.9885288869209 412.0557642663342 825.5881941584021 405.1579342722342Q838.2156732605047 398.2601042781341 853.8470460697152 398.2601042781341L853.8470460697152 398.2601042781341Q869.4506050483045 398.2601042781341 882.078084150407 405.1579342722342Q894.6777494218882 412.0557642663342 901.9927868753088 424.87794018278635Q909.3078243287295 437.70011609923847 909.3078243287295 454.7221804395177L909.3078243287295 454.7221804395177Q909.3078243287295 471.7442447797969 901.7980900609592 484.64986218811305Q894.288355793189 497.58329342705065 881.4661798767369 504.59237874363623Q868.6440039602847 511.6014640602218 853.0404449816955 511.6014640602218L853.0404449816955 511.6014640602218ZM853.0404449816955 495.58069762231196Q862.8587271910395 495.58069762231196 871.4532008530432 490.96360173916435Q880.0754883456683 486.3743196866381 885.3879299943502 477.1401279203429Q890.6725578124107 467.933749984669 890.6725578124107 454.7221804395177L890.6725578124107 454.7221804395177Q890.6725578124107 441.5106108943663 885.4713714862143 432.30423295869247Q880.2701851600178 423.07004119239724 871.8704083123638 418.5642006317351Q863.4428176340883 414.05836007107297 853.6245354247443 414.05836007107297L853.6245354247443 414.05836007107297Q843.6115564010506 414.05836007107297 835.323034875882 418.5642006317351Q827.006699520092 423.07004119239724 822.0002100082452 432.30423295869247Q816.9937204963984 441.5106108943663 816.9937204963984 454.7221804395177L816.9937204963984 454.7221804395177Q816.9937204963984 468.12844679901855 821.8889546857597 477.36263856531383Q826.8120027057424 486.5690165009877 835.0170827390469 491.0748570616498Q843.2221627723515 495.58069762231196 853.0404449816955 495.58069762231196L853.0404449816955 495.58069762231196ZM984.210470192082 415.0596579734423L955.5622246520696 415.0596579734423L955.5622246520696 479.75462799875174Q955.5622246520696 487.7650112177067 958.9833258184983 491.0748570616498Q962.3766131543057 494.38470290559303 970.7763900019597 494.38470290559303L970.7763900019597 494.38470290559303L984.210470192082 494.38470290559303L984.210470192082 509.79356506983265L967.7724962948516 509.79356506983265Q952.5583309449615 509.79356506983265 944.9651551853273 502.78447975324707Q937.3441655950716 495.7753944366616 937.3441655950716 479.75462799875174L937.3441655950716 479.75462799875174L937.3441655950716 415.0596579734423L923.1312981475509 415.0596579734423L923.1312981475509 400.04018943790186L937.3441655950716 400.04018943790186L937.3441655950716 372.4210556308803L955.5622246520696 372.4210556308803L955.5622246520696 400.04018943790186L984.210470192082 400.04018943790186L984.210470192082 415.0596579734423ZM1106.3688142811443 450.71698883004024Q1106.3688142811443 455.9181751562366 1105.7569100074743 461.7312657561032L1105.7569100074743 461.7312657561032L1018.0599020582907 461.7312657561032Q1019.0611999606601 477.94672900836264 1029.1576204762177 487.0696654521724Q1039.2818548223972 496.16478806536077 1053.6894190842672 496.16478806536077L1053.6894190842672 496.16478806536077Q1065.5102970983498 496.16478806536077 1073.4094249948193 490.65764960232923Q1081.33636672191 485.15051113929775 1084.534957243368 475.9441332036239L1084.534957243368 475.9441332036239L1104.171521662056 475.9441332036239Q1099.749122593258 491.7702028271841 1086.5375530481065 501.67192652839225Q1073.3259835029553 511.6014640602218 1053.6894190842672 511.6014640602218L1053.6894190842672 511.6014640602218Q1038.085860105678 511.6014640602218 1025.7643331404106 504.59237874363623Q1013.4428061751431 497.58329342705065 1006.4337208585576 484.64986218811305Q999.4246355419721 471.7442447797969 999.4246355419721 454.7221804395177L999.4246355419721 454.7221804395177Q999.4246355419721 437.70011609923847 1006.239024044208 424.87794018278635Q1013.053412546444 412.0557642663342 1025.34712568109 405.1579342722342Q1037.6686526463575 398.2601042781341 1053.6894190842672 398.2601042781341L1053.6894190842672 398.2601042781341Q1069.3207918934777 398.2601042781341 1081.33636672191 405.0466789497487Q1093.3519415503426 411.86106745198464 1099.8603779157434 423.7932007885529Q1106.3688142811443 435.6975202944998 1106.3688142811443 450.71698883004024L1106.3688142811443 450.71698883004024ZM1087.538850950476 446.9064940349124Q1087.538850950476 436.50412138251954 1082.9217550673284 428.9943871147493Q1078.3324730148022 421.4846528469791 1070.4055312877113 417.56290272936576Q1062.506403391242 413.66896644237374 1052.8828179962475 413.66896644237374L1052.8828179962475 413.66896644237374Q1039.0871580080475 413.66896644237374 1029.3523172905675 422.48595074934843Q1019.645290403709 431.3029350563231 1018.2545988726405 446.9064940349124L1018.2545988726405 446.9064940349124L1087.538850950476 446.9064940349124ZM1169.2558853160647 511.6014640602218Q1156.628406213962 511.6014640602218 1146.6154271902683 507.2903203139092Q1136.602448166575 502.9791765675967 1130.789357566708 495.27474548547684Q1124.9762669668416 487.5703144033571 1124.3921765237928 477.5573353796634L1124.3921765237928 477.5573353796634L1143.2221398544611 477.5573353796634Q1144.0009271118597 485.7624154129679 1150.926570936581 490.96360173916435Q1157.824400930681 496.16478806536077 1169.0333746710935 496.16478806536077L1169.0333746710935 496.16478806536077Q1179.463561154108 496.16478806536077 1185.4713485683242 491.5755060128345Q1191.4791359825404 486.9584101296869 1191.4791359825404 479.9493248131013L1191.4791359825404 479.9493248131013Q1191.4791359825404 472.7455426821662 1185.0541411090035 469.2410000238734Q1178.6569600660882 465.73645736558063 1165.2506937065873 462.3431700297734L1165.2506937065873 462.3431700297734Q1153.012608233184 459.11676567769433 1145.308177151064 455.8347336643725Q1137.603746068944 452.52488782042934 1132.0966076059126 446.01645145502846Q1126.5894691428812 439.50801508962763 1126.5894691428812 428.88313179226384L1126.5894691428812 428.88313179226384Q1126.5894691428812 420.48335494460974 1131.595958654728 413.47426962802416Q1136.602448166575 406.46518431143863 1145.8088261022485 402.34873737947566Q1155.0152040379226 398.2601042781341 1166.8360820520052 398.2601042781341L1166.8360820520052 398.2601042781341Q1185.0541411090035 398.2601042781341 1196.2909286800375 407.466482213808Q1207.49990242045 416.6728601494819 1208.3065035084699 432.6936265873917L1208.3065035084699 432.6936265873917L1190.0606306208501 432.6936265873917Q1189.4765401778016 424.0713390947666 1183.1628006267501 418.8701527685702Q1176.849061075699 413.66896644237374 1166.2519916089566 413.66896644237374L1166.2519916089566 413.66896644237374Q1156.4337093996123 413.66896644237374 1150.620618799746 417.8688548662008Q1144.8075281998795 422.0687432900279 1144.8075281998795 428.88313179226384L1144.8075281998795 428.88313179226384Q1144.8075281998795 434.3068287634312 1148.312070858172 437.81137142172395Q1151.8166135164647 441.31591408001674 1157.1290551651468 443.4019513766196Q1162.4414968138285 445.5158025038438 1171.8425715638523 448.1024887516313L1171.8425715638523 448.1024887516313Q1183.663449577935 451.3288931037104 1191.0619285232196 454.4162283026826Q1198.4882212991256 457.5313773322762 1203.8006629478077 463.73386156084194Q1209.0852907658682 469.9363457894077 1209.3078014108391 479.9493248131013L1209.3078014108391 479.9493248131013Q1209.3078014108391 488.9610059344256 1204.3013118989925 496.16478806536077Q1199.2948223871456 503.3963840269173 1190.1718859433358 507.48501712825885Q1181.048949499526 511.6014640602218 1169.2558853160647 511.6014640602218L1169.2558853160647 511.6014640602218ZM1331.0489380405807 370.22376301179196L1350.2682949999485 370.22376301179196L1297.6167136336926 509.79356506983265L1276.589457683936 509.79356506983265L1223.910062487059 370.22376301179196L1243.3519300913974 370.22376301179196L1287.1865271506786 490.5742081104652L1331.0489380405807 370.22376301179196ZM1363.5076783757208 454.5274836251681Q1363.5076783757208 437.70011609923847 1370.2942530473356 424.9891955052719Q1377.1086415495715 412.2782749113052 1389.0407748861398 405.2691895947197Q1400.945094392087 398.2601042781341 1415.575169298928 398.2601042781341L1415.575169298928 398.2601042781341Q1429.9827335607984 398.2601042781341 1440.6076168581621 404.46258850669994Q1451.2046863249047 410.66507273526565 1456.4058726511007 420.06614748528915L1456.4058726511007 420.06614748528915L1456.4058726511007 400.04018943790186L1474.84644235307 400.04018943790186L1474.84644235307 509.79356506983265L1456.4058726511007 509.79356506983265L1456.4058726511007 489.37821339374614Q1451.009989510555 498.9739849581192 1440.3016647213267 505.2877245091705Q1429.5933399320988 511.6014640602218 1415.352658653957 511.6014640602218L1415.352658653957 511.6014640602218Q1400.7503975777372 511.6014640602218 1388.9295195636546 504.3976819292866Q1377.1086415495715 497.1660859677301 1370.2942530473356 484.1492132369284Q1363.5076783757208 471.1323405061267 1363.5076783757208 454.5274836251681L1363.5076783757208 454.5274836251681ZM1456.4058726511007 454.7221804395177Q1456.4058726511007 442.3172119823861 1451.399383139254 433.08302021609086Q1446.3928936274074 423.876642280417 1437.8818614572679 418.9814080910557Q1429.370829287128 414.05836007107297 1419.1631534490848 414.05836007107297L1419.1631534490848 414.05836007107297Q1408.9554776110417 414.05836007107297 1400.5557007633874 418.8701527685702Q1392.128110085112 423.6819454660674 1387.1216205732653 432.8883234017413Q1382.1151310614182 442.09470133741513 1382.1151310614182 454.5274836251681L1382.1151310614182 454.5274836251681Q1382.1151310614182 467.1271488966492 1387.1216205732653 476.4447821548086Q1392.128110085112 485.7624154129679 1400.5557007633874 490.65764960232923Q1408.9554776110417 495.58069762231196 1419.1631534490848 495.58069762231196L1419.1631534490848 495.58069762231196Q1429.370829287128 495.58069762231196 1437.8818614572679 490.65764960232923Q1446.3928936274074 485.7624154129679 1451.399383139254 476.4447821548086Q1456.4058726511007 467.1271488966492 1456.4058726511007 454.7221804395177L1456.4058726511007 454.7221804395177ZM1584.79451479935 400.04018943790186L1603.0125738563484 400.04018943790186L1603.0125738563484 509.79356506983265L1584.79451479935 509.79356506983265L1584.79451479935 493.57810181757327Q1579.5655146425324 501.9778786652273 1570.2756952149944 506.6784160402391Q1560.958061956835 511.4067672458722 1549.7490882164225 511.4067672458722L1549.7490882164225 511.4067672458722Q1536.9269122999704 511.4067672458722 1526.7192364619273 506.0943255971903Q1516.4837467932625 500.7818839485084 1510.587214701532 490.1570006511446Q1504.6906826098016 479.55993118440216 1504.6906826098016 464.3457658345121L1504.6906826098016 464.3457658345121L1504.6906826098016 400.04018943790186L1522.7140448524497 400.04018943790186L1522.7140448524497 461.92596257045284Q1522.7140448524497 478.1414258227122 1530.9191248857542 486.8749686378228Q1539.1242049190591 495.58069762231196 1553.3370723665794 495.58069762231196L1553.3370723665794 495.58069762231196Q1567.9671472734208 495.58069762231196 1576.366924121075 486.5690165009877Q1584.79451479935 477.5573353796634 1584.79451479935 460.34057422503463L1584.79451479935 460.34057422503463L1584.79451479935 400.04018943790186ZM1633.858112015449 361.60147551916685L1652.0761710724473 361.60147551916685L1652.0761710724473 509.79356506983265L1633.858112015449 509.79356506983265L1633.858112015449 361.60147551916685ZM1733.9879022523855 415.0596579734423L1705.3396567123732 415.0596579734423L1705.3396567123732 479.75462799875174Q1705.3396567123732 487.7650112177067 1708.7329440481803 491.0748570616498Q1712.1540452146091 494.38470290559303 1720.553822062263 494.38470290559303L1720.553822062263 494.38470290559303L1733.9879022523855 494.38470290559303L1733.9879022523855 509.79356506983265L1717.5499283551549 509.79356506983265Q1702.335763005265 509.79356506983265 1694.7147734150094 502.78447975324707Q1687.121597655375 495.7753944366616 1687.121597655375 479.75462799875174L1687.121597655375 479.75462799875174L1687.121597655375 415.0596579734423L1672.9087302078542 415.0596579734423L1672.9087302078542 400.04018943790186L1687.121597655375 400.04018943790186L1687.121597655375 372.4210556308803L1705.3396567123732 372.4210556308803L1705.3396567123732 400.04018943790186L1733.9879022523855 400.04018943790186L1733.9879022523855 415.0596579734423Z " fill="#3d155f" transform="matrix(0.5046171151933118,0,0,0.5046171151933118,0,79.68343778606271)"/></g></svg>